# xmcd CD database file
#
# Track frame offsets:
#	150
#	36742
#	46960
#	73062
#	86522
#	97987
#	106237
#	137695
#	163442
#	185040
#	195835
#	214985
#	238420
#	256507
#
# Disc length: 3522 seconds
#
# Revision: 8
# Processed by: cddbd v1.5.2PL0 Copyright (c) Steve Scherf et al.
# Submitted via: CDex 1.81
#
DISCID=cc0dc00e
DTITLE=Mike Oldfield - Tubular Bells II
DYEAR=1992
DGENRE=New Age
TTITLE0=1. Sentinel
TTITLE1=2. Dark Star
TTITLE2=3. Clear Light
TTITLE3=4. Blue Saloon
TTITLE4=5. Sunjammer
TTITLE5=6. Red Dawn
TTITLE6=7. The Bell
TTITLE7=8. Weightless
TTITLE8=9. The Great Plain
TTITLE9=10. Sunset Door
TTITLE10=11. Tattoo
TTITLE11=12. Altered State
TTITLE12=13. Maya Gold
TTITLE13=14. Moonshine
EXTD=YEAR: 1992
EXTT0=
EXTT1=
EXTT2=
EXTT3=
EXTT4=
EXTT5=
EXTT6=
EXTT7=
EXTT8=
EXTT9=
EXTT10=
EXTT11=
EXTT12=
EXTT13=
PLAYORDER=
